<svg width="32" height="30" viewBox="0 0 32 30" fill="none" xmlns="http://www.w3.org/2000/svg">
<g filter="url(#filter0_d_1_28)">
<path d="M23.9779 6.05086C27.2198 10.0694 26.347 15.0893 22.9943 18.5188C19.5703 22.0212 8.64259 22.8692 5.91059 13.9472C4.8991 10.644 6.01448 7.94885 7.79244 5.83217M23.9779 6.05086C24.5243 5.73134 25.4349 5.39397 25.9813 4.61975C26.3753 4.06152 27.2562 2.33396 26.9283 1.19106C26.2119 0.957568 24.4222 0.748652 22.9943 1.78094C21.5664 2.81324 21.938 2.80651 21.5009 3.62505M23.9779 6.05086C22.9215 5.64531 21.2095 4.83423 21.5009 3.62505M21.5009 3.62505C19.1493 1.86753 17.0832 1.55974 15.8913 1.55974C14.1214 1.55974 12.0981 2.24533 10.2089 3.50699M10.2089 3.50699C9.50446 0.513274 5 1.19106 5 1.19106C5.05659 2.53723 5.83014 5.45672 7.79244 5.83217M10.2089 3.50699C9.66251 4.31808 8.93399 5.16603 7.79244 5.83217M20.9545 12.7239C20.9545 14.3935 18.8997 15.747 16.3649 15.747C13.8301 15.747 11.7752 14.3935 11.7752 12.7239C11.7752 11.0543 13.8301 9.70074 16.3649 9.70074C18.8997 9.70074 20.9545 11.0543 20.9545 12.7239ZM13.2322 8.00484C13.2322 8.41206 12.9061 8.74219 12.5037 8.74219C12.1014 8.74219 11.7752 8.41206 11.7752 8.00484C11.7752 7.59761 12.1014 7.26749 12.5037 7.26749C12.9061 7.26749 13.2322 7.59761 13.2322 8.00484ZM19.7161 8.00484C19.7161 8.41206 19.3899 8.74219 18.9875 8.74219C18.5852 8.74219 18.259 8.41206 18.259 8.00484C18.259 7.59761 18.5852 7.26749 18.9875 7.26749C19.3899 7.26749 19.7161 7.59761 19.7161 8.00484ZM18.259 12.9082C18.259 13.1729 18.047 13.3875 17.7855 13.3875C17.524 13.3875 17.3119 13.1729 17.3119 12.9082C17.3119 12.6435 17.524 12.4289 17.7855 12.4289C18.047 12.4289 18.259 12.6435 18.259 12.9082ZM15.1992 12.9082C15.1992 13.1729 14.9872 13.3875 14.7257 13.3875C14.4642 13.3875 14.2522 13.1729 14.2522 12.9082C14.2522 12.6435 14.4642 12.4289 14.7257 12.4289C14.9872 12.4289 15.1992 12.6435 15.1992 12.9082Z" stroke="#DB8008"/>
</g>
<defs>
<filter id="filter0_d_1_28" x="0.481583" y="0.500214" width="31.0183" height="28.9998" filterUnits="userSpaceOnUse" color-interpolation-filters="sRGB">
<feFlood flood-opacity="0" result="BackgroundImageFix"/>
<feColorMatrix in="SourceAlpha" type="matrix" values="0 0 0 0 0 0 0 0 0 0 0 0 0 0 0 0 0 0 127 0" result="hardAlpha"/>
<feOffset dy="4"/>
<feGaussianBlur stdDeviation="2"/>
<feComposite in2="hardAlpha" operator="out"/>
<feColorMatrix type="matrix" values="0 0 0 0 0 0 0 0 0 0 0 0 0 0 0 0 0 0 0.25 0"/>
<feBlend mode="normal" in2="BackgroundImageFix" result="effect1_dropShadow_1_28"/>
<feBlend mode="normal" in="SourceGraphic" in2="effect1_dropShadow_1_28" result="shape"/>
</filter>
</defs>
</svg>
